<svg id="visual" viewBox="0 0 900 600" width="900" height="600" xmlns="http://www.w3.org/2000/svg" xmlns:xlink="http://www.w3.org/1999/xlink" version="1.1"><rect x="0" y="0" width="900" height="600" fill="#001220"></rect><defs><linearGradient id="grad1_0" x1="33.3%" y1="0%" x2="100%" y2="100%"><stop offset="20%" stop-color="#fbae3c" stop-opacity="1"></stop><stop offset="80%" stop-color="#fbae3c" stop-opacity="1"></stop></linearGradient></defs><defs><linearGradient id="grad1_1" x1="33.3%" y1="0%" x2="100%" y2="100%"><stop offset="20%" stop-color="#fbae3c" stop-opacity="1"></stop><stop offset="80%" stop-color="#f48350" stop-opacity="1"></stop></linearGradient></defs><defs><linearGradient id="grad1_2" x1="33.3%" y1="0%" x2="100%" y2="100%"><stop offset="20%" stop-color="#d96162" stop-opacity="1"></stop><stop offset="80%" stop-color="#f48350" stop-opacity="1"></stop></linearGradient></defs><defs><linearGradient id="grad1_3" x1="33.3%" y1="0%" x2="100%" y2="100%"><stop offset="20%" stop-color="#d96162" stop-opacity="1"></stop><stop offset="80%" stop-color="#af4b6d" stop-opacity="1"></stop></linearGradient></defs><defs><linearGradient id="grad1_4" x1="33.3%" y1="0%" x2="100%" y2="100%"><stop offset="20%" stop-color="#7c3e6b" stop-opacity="1"></stop><stop offset="80%" stop-color="#af4b6d" stop-opacity="1"></stop></linearGradient></defs><defs><linearGradient id="grad1_5" x1="33.3%" y1="0%" x2="100%" y2="100%"><stop offset="20%" stop-color="#7c3e6b" stop-opacity="1"></stop><stop offset="80%" stop-color="#49335c" stop-opacity="1"></stop></linearGradient></defs><defs><linearGradient id="grad1_6" x1="33.3%" y1="0%" x2="100%" y2="100%"><stop offset="20%" stop-color="#1d2540" stop-opacity="1"></stop><stop offset="80%" stop-color="#49335c" stop-opacity="1"></stop></linearGradient></defs><defs><linearGradient id="grad1_7" x1="33.3%" y1="0%" x2="100%" y2="100%"><stop offset="20%" stop-color="#1d2540" stop-opacity="1"></stop><stop offset="80%" stop-color="#001220" stop-opacity="1"></stop></linearGradient></defs><defs><linearGradient id="grad2_0" x1="0%" y1="0%" x2="66.7%" y2="100%"><stop offset="20%" stop-color="#fbae3c" stop-opacity="1"></stop><stop offset="80%" stop-color="#fbae3c" stop-opacity="1"></stop></linearGradient></defs><defs><linearGradient id="grad2_1" x1="0%" y1="0%" x2="66.7%" y2="100%"><stop offset="20%" stop-color="#f48350" stop-opacity="1"></stop><stop offset="80%" stop-color="#fbae3c" stop-opacity="1"></stop></linearGradient></defs><defs><linearGradient id="grad2_2" x1="0%" y1="0%" x2="66.7%" y2="100%"><stop offset="20%" stop-color="#f48350" stop-opacity="1"></stop><stop offset="80%" stop-color="#d96162" stop-opacity="1"></stop></linearGradient></defs><defs><linearGradient id="grad2_3" x1="0%" y1="0%" x2="66.7%" y2="100%"><stop offset="20%" stop-color="#af4b6d" stop-opacity="1"></stop><stop offset="80%" stop-color="#d96162" stop-opacity="1"></stop></linearGradient></defs><defs><linearGradient id="grad2_4" x1="0%" y1="0%" x2="66.7%" y2="100%"><stop offset="20%" stop-color="#af4b6d" stop-opacity="1"></stop><stop offset="80%" stop-color="#7c3e6b" stop-opacity="1"></stop></linearGradient></defs><defs><linearGradient id="grad2_5" x1="0%" y1="0%" x2="66.7%" y2="100%"><stop offset="20%" stop-color="#49335c" stop-opacity="1"></stop><stop offset="80%" stop-color="#7c3e6b" stop-opacity="1"></stop></linearGradient></defs><defs><linearGradient id="grad2_6" x1="0%" y1="0%" x2="66.7%" y2="100%"><stop offset="20%" stop-color="#49335c" stop-opacity="1"></stop><stop offset="80%" stop-color="#1d2540" stop-opacity="1"></stop></linearGradient></defs><defs><linearGradient id="grad2_7" x1="0%" y1="0%" x2="66.7%" y2="100%"><stop offset="20%" stop-color="#001220" stop-opacity="1"></stop><stop offset="80%" stop-color="#1d2540" stop-opacity="1"></stop></linearGradient></defs><g transform="translate(900, 0)"><path d="M0 486.7C-57 453 -114.1 419.3 -160.3 387.1C-206.6 354.9 -242.1 324.1 -294.2 294.2C-346.2 264.2 -414.8 235.2 -449.7 186.3C-484.6 137.4 -485.7 68.7 -486.7 0L0 0Z" fill="#0c1c30"></path><path d="M0 425.9C-49.9 396.4 -99.8 366.9 -140.3 338.7C-180.8 310.5 -211.8 283.6 -257.4 257.4C-302.9 231.2 -363 205.8 -393.5 163C-424 120.2 -424.9 60.1 -425.9 0L0 0Z" fill="#312c4f"></path><path d="M0 365.1C-42.8 339.8 -85.6 314.5 -120.3 290.3C-155 266.1 -181.6 243.1 -220.6 220.6C-259.7 198.2 -311.1 176.4 -337.3 139.7C-363.4 103 -364.2 51.5 -365.1 0L0 0Z" fill="#623965"></path><path d="M0 304.2C-35.6 283.2 -71.3 262.1 -100.2 241.9C-129.1 221.8 -151.3 202.6 -183.8 183.8C-216.4 165.1 -259.3 147 -281.1 116.4C-302.8 85.9 -303.5 42.9 -304.2 0L0 0Z" fill="#96446e"></path><path d="M0 243.4C-28.5 226.5 -57 209.7 -80.2 193.6C-103.3 177.4 -121 162 -147.1 147.1C-173.1 132.1 -207.4 117.6 -224.8 93.1C-242.3 68.7 -242.8 34.3 -243.4 0L0 0Z" fill="#c55469"></path><path d="M0 182.5C-21.4 169.9 -42.8 157.3 -60.1 145.2C-77.5 133.1 -90.8 121.5 -110.3 110.3C-129.8 99.1 -155.6 88.2 -168.6 69.9C-181.7 51.5 -182.1 25.8 -182.5 0L0 0Z" fill="#e9705a"></path><path d="M0 121.7C-14.3 113.3 -28.5 104.8 -40.1 96.8C-51.7 88.7 -60.5 81 -73.5 73.5C-86.6 66.1 -103.7 58.8 -112.4 46.6C-121.1 34.3 -121.4 17.2 -121.7 0L0 0Z" fill="#fa9845"></path><path d="M0 60.8C-7.1 56.6 -14.3 52.4 -20 48.4C-25.8 44.4 -30.3 40.5 -36.8 36.8C-43.3 33 -51.9 29.4 -56.2 23.3C-60.6 17.2 -60.7 8.6 -60.8 0L0 0Z" fill="#fbae3c"></path></g><g transform="translate(0, 600)"><path d="M0 -486.7C50.4 -451.9 100.9 -417 165.7 -400C230.5 -383.1 309.8 -384.1 344.2 -344.2C378.6 -304.3 368.1 -223.4 384.3 -159.2C400.6 -95 443.7 -47.5 486.7 0L0 0Z" fill="#0c1c30"></path><path d="M0 -425.9C44.1 -395.4 88.3 -364.9 145 -350C201.7 -335.2 271.1 -336.1 301.2 -301.2C331.2 -266.2 322 -195.5 336.3 -139.3C350.5 -83.1 388.2 -41.6 425.9 0L0 0Z" fill="#312c4f"></path><path d="M0 -365.1C37.8 -338.9 75.6 -312.7 124.3 -300C172.9 -287.3 232.4 -288.1 258.1 -258.1C283.9 -228.2 276 -167.5 288.3 -119.4C300.5 -71.3 332.8 -35.6 365.1 0L0 0Z" fill="#623965"></path><path d="M0 -304.2C31.5 -282.4 63 -260.6 103.6 -250C144.1 -239.4 193.6 -240.1 215.1 -215.1C236.6 -190.2 230 -139.6 240.2 -99.5C250.4 -59.4 277.3 -29.7 304.2 0L0 0Z" fill="#96446e"></path><path d="M0 -243.4C25.2 -225.9 50.4 -208.5 82.9 -200C115.3 -191.6 154.9 -192.1 172.1 -172.1C189.3 -152.1 184 -111.7 192.2 -79.6C200.3 -47.5 221.8 -23.8 243.4 0L0 0Z" fill="#c55469"></path><path d="M0 -182.5C18.9 -169.4 37.8 -156.4 62.1 -150C86.5 -143.7 116.2 -144 129.1 -129.1C142 -114.1 138 -83.8 144.1 -59.7C150.2 -35.6 166.4 -17.8 182.5 0L0 0Z" fill="#e9705a"></path><path d="M0 -121.7C12.6 -113 25.2 -104.2 41.4 -100C57.6 -95.8 77.5 -96 86 -86C94.6 -76.1 92 -55.8 96.1 -39.8C100.2 -23.8 110.9 -11.9 121.7 0L0 0Z" fill="#fa9845"></path><path d="M0 -60.8C6.3 -56.5 12.6 -52.1 20.7 -50C28.8 -47.9 38.7 -48 43 -43C47.3 -38 46 -27.9 48 -19.9C50.1 -11.9 55.5 -5.9 60.8 0L0 0Z" fill="#fbae3c"></path></g></svg>